# xmcd CD database file
#
# Track frame offsets:
#	150
#	27465
#	44701
#	67827
#	82755
#	113391
#	135187
#	152707
#	176627
#	197650
#
# Disc length: 3037 seconds
#
# Revision: 0
# Processed by: cddbd v1.5.1PL0 Copyright (c) Steve Scherf et al.
# Submitted via: CDex 1.51
#
DISCID=740bdb0a
DTITLE=Jimmy Dawkins - American Roots: Blues
DYEAR=2002
DGENRE=Blues
TTITLE0=Lonesome Blues
TTITLE1=Begging Business
TTITLE2=Can't Hide My Love
TTITLE3=Down, Down Baby
TTITLE4=Me, My Gitar and the Blues
TTITLE5=Cold as Hell
TTITLE6=Right to Quit You
TTITLE7=Lonely Guitar Man
TTITLE8=Know Your Lover
TTITLE9=Down With the Blues
EXTD=YEAR: 2002
EXTT0=
EXTT1=
EXTT2=
EXTT3=
EXTT4=
EXTT5=
EXTT6=
EXTT7=
EXTT8=
EXTT9=
PLAYORDER=
